<svg xmlns="http://www.w3.org/2000/svg" xmlns:xlink="http://www.w3.org/1999/xlink" width="72" height="59" viewBox="0 0 72 59">
    <defs>
        <path id="prefix__a" d="M0 0.148L57.422 0.148 57.422 58 0 58z"/>
        <path id="prefix__c" d="M0.346 0.068L17.381 0.068 17.381 4.734 0.346 4.734z"/>
    </defs>
    <g fill="none" fill-rule="evenodd">
        <g transform="rotate(-2 36.5 58.145) translate(.91 .344)">
            <mask id="prefix__b" fill="#fff">
                <use xlink:href="#prefix__a"/>
            </mask>
            <path fill="#F7F4EF" d="M57.422 27.116c-2.738-1.538-5.72-1.654-8.749-1.506h.001c-2.92.123-3.347-1.096-2.785-3.88 1.287-6.38 2.405-12.864-.5-19.182.004-1.025.12-2.144-1.284-2.37-1.095-.175-1.663.409-1.792 1.47-.725 4.925-1.898 9.755-3.687 14.383-2.988 7.733-3.083 7.697-11.55 7.791-.782.01-1.565-.007-2.346-.011-4.34.402-8.753.452-13.002 1.309-4.008.808-7.272 1.096-8.847-3.606-.229-.684-.726-1.453-1.908-1.36.077.765-.016 1.596.26 2.278 1.329 3.29 1.785 6.394-.173 9.751-1.119 1.92-1.407 4.342-.6 6.906 2.443-1.754 3.53-4.01 4.287-6.366.507-1.572 1.411-2.137 2.892-2.061 7.493.383 14.984.787 22.235 1.17-.218 9.094-1.892 16.775-4.143 25.88 2.11.928 3.204-.588 4.176-1.642 5.43-5.886 9.986-12.325 11.368-20.444.295-1.733.51-2.848 2.56-1.994 2.993-1.595 6.488-1.4 9.573-2.677 1.826.346 2.294-.831 2.538-2.261l.002-.003c.187-.03.376-.055.566-.072.276-.254.428-.569.452-.945l-.018-.012.474-.546" mask="url(#prefix__b)"/>
        </g>
        <g transform="rotate(-2 36.5 58.145) translate(55.726 27.184)">
            <mask id="prefix__d" fill="#fff">
                <use xlink:href="#prefix__c"/>
            </mask>
            <path fill="#EABA4A" d="M.346 2.013c.147-.238.204-.498.169-.78C.675.73.74.138 1.423.115c5.5-.29 10.786.754 15.958 2.875C12.183 4.906 6.915 5.072 1.583 4.31.286 4.125.42 2.986.346 2.013" mask="url(#prefix__d)"/>
        </g>
    </g>
</svg>
