<?xml version="1.0" encoding="utf-8"?>
<!-- Generator: Adobe Illustrator 23.0.3, SVG Export Plug-In . SVG Version: 6.00 Build 0)  -->
<svg version="1.1" id="Layer_1" xmlns="http://www.w3.org/2000/svg" xmlns:xlink="http://www.w3.org/1999/xlink" x="0px" y="0px"
	 viewBox="0 0 20.1 35.2" style="enable-background:new 0 0 20.1 35.2;" xml:space="preserve">
<style type="text/css">
	.st0{fill:#808080;}
	.st1{fill:#0F964F;}
	.st2{fill:#0A7A3F;}
	.st3{fill:#033F21;}
	.st4{fill:#BD0913;}
	.st5{fill:#AA1C22;}
	.st6{fill:#F2F2F2;}
	.st7{fill:#006837;}
</style>
<ellipse class="st0" cx="8.6" cy="32.2" rx="8.4" ry="3.1"/>
<title>buoy01</title>
<path class="st1" d="M9,2.5L8.8,2.5C8.5,2.7,8.3,2.8,8,3C7.5,3.4,7.3,4,7.4,4.6c0,0,0.1,0,0.1,0.1c0.1,0.4,0.4,0.8,0.8,1
	C9,6.1,9.8,6.4,10.8,6.4c0.9,0.1,1.9,0,2.7-0.4c0.7-0.2,1.2-0.7,1.4-1.4l0,0c0.1-0.4,0-0.8-0.3-1.1c-0.3-0.4-0.7-0.7-1.2-0.9
	C12,2.1,10.4,2,9,2.5z"/>
<path class="st1" d="M5.3,18.9c-1.1,0.5-2,1.3-2.6,2.2c-0.4,0.6-0.5,1.2-0.5,1.9v0.3c0.1,0.3,0.2,0.7,0.4,1c0.2,0.4,0.5,0.8,0.8,1.1
	c0.5,0.5,1,0.8,1.6,1.1c0.6,0.3,1.2,0.6,1.9,0.8c0.6,0.2,1.2,0.3,1.7,0.4c0.5,0.1,1,0.2,1.6,0.2c0.4,0,0.8,0,1.3,0
	c0.6,0,1.2-0.1,1.9-0.2s1-0.2,1.5-0.3c0.3-0.1,0.5-0.1,0.8-0.2c0.5-0.2,1-0.4,1.5-0.6c0.5-0.3,1.1-0.6,1.5-1c0.6-0.5,1.1-1.2,1.4-2
	c0-0.1,0-0.2,0.1-0.3v-0.2c0-0.6-0.1-1.2-0.3-1.7c-0.3-0.6-0.7-1.1-1.2-1.5c-0.7-0.6-1.4-1-2.2-1.3C12.7,17.2,8.8,17.3,5.3,18.9z"/>
<path class="st2" d="M2.2,23.4c0.1,0.3,0.2,0.7,0.4,1c0.2,0.4,0.5,0.8,0.8,1.1c0.5,0.5,1,0.8,1.6,1.1c0.6,0.3,1.2,0.6,1.9,0.8
	c0.6,0.2,1.2,0.3,1.7,0.4c0.5,0.1,1,0.2,1.6,0.2c0.4,0,0.8,0,1.3,0c0.6,0,1.2-0.1,1.9-0.2s1-0.2,1.5-0.3c0.3-0.1,0.5-0.1,0.8-0.2
	c0.5-0.2,1-0.4,1.5-0.6c0.5-0.3,1.1-0.6,1.5-1c0.6-0.5,1.1-1.2,1.4-2c0-0.1,0-0.2,0.1-0.3v0.1c0,0.9,0,1.8,0,2.7
	c-0.1,0-0.1,0.1,0,0.1c0,0.1,0,0.2,0,0.3c0,0,0,0,0,0.1c0,0,0,0.1,0,0.1c-0.1,0.1-0.1,0.3-0.2,0.4c-0.2,0.5-0.6,0.9-1,1.3
	c-0.5,0.5-1.1,0.8-1.8,1.1c-0.7,0.4-1.5,0.7-2.3,0.9c-0.5,0.1-1,0.2-1.4,0.3c-0.5,0.1-1,0.1-1.5,0.2c-0.8,0-1.5,0-2.3,0
	c-0.8-0.1-1.6-0.2-2.3-0.4c-0.3-0.1-0.6-0.2-0.9-0.3c-0.5-0.2-1.1-0.4-1.6-0.7c-0.7-0.4-1.3-0.9-1.8-1.5l-0.3-0.3
	c-0.2-0.3-0.4-0.7-0.5-1l0,0c0-0.1,0-0.2-0.1-0.2c0-0.1,0-0.2,0-0.3c0,0,0-0.1,0-0.1s-0.1,0-0.1,0C2.2,25.1,2.2,24.3,2.2,23.4
	L2.2,23.4z"/>
<path class="st3" d="M2.3,26.8c0.1,0.3,0.3,0.7,0.5,1L3.1,28c0.5,0.6,1.1,1.1,1.8,1.5c0.5,0.3,1,0.5,1.6,0.7
	c0.3,0.1,0.6,0.2,0.9,0.3c0.8,0.2,1.5,0.3,2.3,0.4c0.8,0.1,1.5,0.1,2.3,0c0.5,0,1-0.1,1.5-0.2c0.5-0.1,1-0.2,1.4-0.3
	c0.8-0.2,1.5-0.5,2.3-0.8c0.6-0.3,1.2-0.7,1.6-1.2c0.4-0.4,0.7-0.8,1-1.3c0.1-0.1,0.1-0.3,0.2-0.4c-0.1,0.4-0.2,0.9-0.4,1.3
	c-1,2.4-3,4.3-5.5,5.1c-3.5,1.2-7.4,0.1-9.8-2.8c-0.8-0.9-1.4-2-1.8-3.1C2.4,27,2.3,26.9,2.3,26.8z"/>
<path class="st2" d="M10.3,18.7c0,0.1,0,0.2,0.1,0.3c0.2,0.2,0.5,0.3,0.8,0.2c0.7,0,0.9-0.3,0.9-0.9v-11c0,0,0,0-0.1-0.1
	c0,0-0.1,0-0.1,0c-0.1,0-0.2,0-0.3,0c-0.4,0-0.8,0-1.2,0L10.3,18.7z"/>
<path class="st4" d="M2.2,23.4L2.2,23.4v-0.3V23.4z"/>
<path class="st4" d="M20.1,23.4L20.1,23.4v-0.3V23.4z"/>
<path class="st4" d="M2.3,26.5c0.1,0,0,0.1,0,0.2C2.3,26.7,2.3,26.6,2.3,26.5z"/>
<path class="st4" d="M2.2,26.1c0.1,0,0.1,0.1,0,0.1C2.2,26.2,2.2,26.1,2.2,26.1z"/>
<path class="st4" d="M20.1,26.2c0,0,0-0.1,0-0.1C20.1,26.1,20.1,26.2,20.1,26.2z"/>
<path class="st4" d="M20,26.5C20,26.5,20,26.5,20,26.5C20,26.5,20,26.5,20,26.5z"/>
<path class="st5" d="M12.1,16C12,16,12,16,12.1,16C12,16,12,16,12.1,16z"/>
<path class="st5" d="M12.1,16L12.1,16C12.1,16,12.1,16,12.1,16z"/>
<polygon class="st4" points="12,11.4 12,11.4 12,11.4 12,11.4 "/>
<path class="st6" d="M8.8,2.5C8.7,1.3,9.6,0.2,10.8,0c1.2-0.1,2.3,0.8,2.5,2.1c0,0.1,0,0.2,0,0.4c0,0.3,0,0.6,0,0.9s0,0.4,0,0.6
	c0,0.4-0.1,0.8-0.5,1c-0.4,0.3-1,0.5-1.5,0.6c-0.7,0.1-1.4-0.1-2-0.4C8.9,4.9,8.6,4.4,8.7,3.9c0-0.2,0-0.4,0-0.5
	C8.7,3.1,8.7,2.8,8.8,2.5z"/>
<path class="st7" d="M10.3,18.1c-0.2,0.1-0.3,0.3-0.5,0.5S9.3,19.2,9,19.5c-0.4,0.5-0.9,1-1.4,1.5c-0.3,0.4-0.6,0.7-1,1.1
	c-0.2,0.2-0.3,0.4-0.3,0.6l-0.5,2.6c0,0.1-0.1,0.2-0.3,0.3c-0.4,0.1-0.9,0.1-1.2-0.2c-0.2-0.1-0.2-0.3-0.2-0.4
	c0.2-0.8,0.3-1.6,0.4-2.4c0.2-1.1,0.4-2.3,0.6-3.5c0-0.1,0-0.2,0-0.2c0.1-0.2,0.1-0.5,0.2-0.7c0.5-3,1-5.9,1.6-8.9
	c0.2-1.1,0.4-2.1,0.6-3.2c0-0.1,0-0.2-0.1-0.3C7.3,5.4,7.3,5,7.4,4.6c0,0,0.1,0,0.1,0.1c0.1,0.4,0.4,0.8,0.8,1
	C9,6.1,9.8,6.4,10.8,6.4c0.9,0.1,1.9,0,2.7-0.4c0.7-0.2,1.2-0.7,1.4-1.4l0,0c0,0.3,0,0.6,0,0.9 M14.9,5.6c0,0.2-0.1,0.4-0.2,0.5
	c-0.1,0.1-0.1,0.2-0.1,0.3c0.2,1.1,0.3,2.2,0.5,3.3l0.7,4.9l0.5,3.8c0,0.1,0,0.1,0.1,0.2c-0.1,0.1,0,0.3,0,0.4
	c0.1,0.8,0.2,1.6,0.3,2.4c0.1,0.8,0.2,1.6,0.4,2.5c0.1,0.5,0.1,0.9,0.2,1.4c0,0.1-0.1,0.2-0.2,0.3c-0.4,0.3-1,0.3-1.4,0
	c-0.1-0.1-0.2-0.3-0.2-0.5c0-0.4-0.1-0.8-0.2-1.3s-0.2-1.1-0.2-1.7c0-0.2-0.1-0.5-0.3-0.6c-0.4-0.4-0.8-0.9-1.2-1.3s-1-1.1-1.5-1.7
	c0,0-0.1-0.1-0.1-0.1s-0.1-0.1-0.1-0.2c-0.2-0.3-0.5-0.6-0.7-0.9c-0.1-0.1-0.1-0.1-0.2,0c-0.1,0.1-0.2,0.2-0.3,0.3
	c-0.1,0.2-0.3,0.2-0.3,0.5L14.9,5.6z M10.3,7.3c-0.3,0-0.7-0.1-1-0.2c-0.1,0-0.1,0-0.2,0.1L9,8.1c0,0,0,0.1,0,0.2
	c0.4,0.3,0.8,0.6,1.3,0.9c0.2,0.1,0.4,0.2,0.5,0.4c0.1,0.1,0.3,0.1,0.4,0c0,0,0,0,0,0L12,8.9l0.9-0.6C13,8.2,13.1,8.1,13,8
	S13,7.5,12.9,7.3s-0.1-0.1-0.2-0.1c-0.2,0.1-0.4,0.1-0.7,0.2c-0.1,0-0.1,0-0.1,0.1c0-0.1-0.1-0.1-0.2-0.1c0,0,0,0,0,0
	c-0.1,0-0.2,0-0.3,0C11.1,7.4,10.7,7.4,10.3,7.3z M12,17l0.5,0.6c0,0.1,0.1,0.1,0.2,0.1c0.1,0.3,0.3,0.4,0.4,0.6
	c0.3,0.4,0.6,0.7,0.9,1c0.3,0.3,0.5,0.6,0.8,0.9c-0.1-0.8-0.2-1.5-0.3-2.2c-0.2-1.3-0.4-2.6-0.6-4l-0.3,0.3c-0.5,0.6-1,1.1-1.5,1.7
	l0,0l0,0c0,0-0.1,0-0.1,0.1s0,0,0,0.1c-0.4,0.2-0.4,0.4-0.1,0.7C11.9,16.9,11.9,17,12,17z M9.3,17.8c0.1,0,0.1-0.1,0.2-0.1l0.7-0.7
	c0.2-0.2,0.2-0.5,0-0.7c-0.6-0.7-1.1-1.3-1.7-2L8,13.7c0,0.1,0,0.1,0,0.2l-0.5,2.8c-0.1,0.5-0.2,1-0.2,1.5c0,0,0,0,0,0.1
	c-0.1,0.4-0.2,0.9-0.2,1.3l-0.3,1.2v0l0.2-0.2L8,19.3c0.3-0.4,0.7-0.7,1-1.1C9.1,18.1,9.3,18,9.3,17.8L9.3,17.8z M10.3,15
	c0.2,0.3,0.4,0.5,0.6,0.8c0.1,0.1,0.2,0.1,0.3,0c0.3-0.4,0.6-0.6,0.8-1c0,0,0-0.1,0.1-0.1l1.6-1.7c0.1-0.2,0.1-0.4,0-0.6
	c-0.5-0.4-1.1-0.8-1.6-1.1c-0.3-0.3-0.6-0.4-0.9-0.7c0,0-0.1,0-0.1,0c-0.2,0.1-0.5,0.3-0.7,0.5c-0.7,0.4-1.4,0.9-2,1.4
	c-0.1,0.1,0,0.1,0,0.2c0.6,0.7,1.2,1.4,1.8,2.1C10.2,14.9,10.2,15,10.3,15z M8.4,11.4l1.8-1.3c0.1-0.1,0-0.1,0-0.1L8.9,9.2
	c-0.1-0.1-0.1,0-0.1,0.1S8.6,9.7,8.6,10L8.4,11.4z M13.2,9.1c-0.4,0.3-0.8,0.5-1.1,0.8c-0.1,0.1-0.1,0.3,0,0.4l1.5,1
	C13.4,10.6,13.3,9.8,13.2,9.1z"/>
</svg>
