<svg xmlns="http://www.w3.org/2000/svg" xmlns:xlink="http://www.w3.org/1999/xlink" width="70" height="71" viewBox="0 0 70 71">
    <g fill="none" fill-rule="evenodd">
        <path fill="#E8E0D7" d="M69.239 8.95l-7.821 61.714-50.325-1.65L.753 9.917 15.51.52z"/>
        <g transform="translate(11.874 13.7)">
            <mask id="b" fill="#fff">
                <path id="a" d="M.47.14h45.067V45H.47z"/>
            </mask>
            <path fill="#1D243A" d="M5.81 2.162a3.302 3.302 0 0 0-3.306 3.292V39.68a3.304 3.304 0 0 0 3.307 3.294h34.385a3.304 3.304 0 0 0 3.307-3.294V5.454a3.302 3.302 0 0 0-3.307-3.292H5.811zM40.197 45H5.811C2.863 45 .47 42.615.47 39.68V5.455C.47 2.522 2.863.137 5.81.137h34.386c2.945 0 5.341 2.385 5.341 5.317V39.68c0 2.934-2.396 5.319-5.34 5.319z" mask="url(#b)"/>
        </g>
        <path fill="#1D243A" d="M33.055 30.31c.12.343.263.703.428 1.077.167.376.352.727.565 1.055h-3.045c-.39-.686-.7-1.4-.927-2.133h-.675a13.109 13.109 0 0 1-1.171 2.133h-3.452c.525-.808.972-1.631 1.34-2.468.37-.84.704-1.724 1.004-2.653h3.314c-.04.167-.088.34-.134.518-.045.18-.104.353-.178.517h4.939v1.953h-2.008zm-6.157 5.275c-.3-.434-.583-.875-.845-1.325a25.47 25.47 0 0 1-.76-1.393h3.545c.253.464.529.925.825 1.382.29.459.61.902.956 1.336h-3.72zm-1.084 11.586h3.27V36.28h-3.27v10.89zm13.848-3.726a1.486 1.486 0 0 1-.339.425c-.33.283-.712.427-1.15.427h-6.266a1.8 1.8 0 0 1-1.13-.405c-.36-.315-.542-.733-.542-1.255v-4.829c0-.254.052-.474.16-.661.104-.187.24-.349.405-.484.165-.12.36-.214.585-.281.228-.068.452-.101.676-.101h5.798c.646 0 1.15.189 1.51.562.286.284.429.673.429 1.168v4.894c0 .195-.043.373-.136.54zm3.994 3.165c-.361.387-.811.58-1.354.58h-5.795l-.52-1.905h4.6c.108 0 .208-.058.305-.169a.524.524 0 0 0 .147-.348V35.7c0-.135-.059-.277-.181-.42-.12-.14-.255-.21-.405-.21h-9.337v-1.953h10.712c.363 0 .696.047 1.005.144.308.097.568.252.776.461.183.196.325.419.431.673.104.254.156.547.156.878v10.102c0 .464-.18.875-.54 1.235zm-6.855-8.106c0-.255-.122-.38-.362-.38h-2.798a.395.395 0 0 0-.292.11.375.375 0 0 0-.113.27v.83h3.565v-.83zm0 2.538h-3.565v1.032c0 .09.043.178.125.26.081.08.162.123.237.123h2.841c.075 0 .154-.047.237-.137.084-.09.125-.171.125-.246v-1.032zm5.838-10.733c.287.75.635 1.465 1.042 2.153h-3.363a14.064 14.064 0 0 1-.452-1.053c-.134-.36-.263-.724-.382-1.1h-.588c-.104.36-.212.716-.328 1.064-.113.356-.23.702-.348 1.044h-3.496c.39-.805.725-1.633 1.003-2.48.278-.845.531-1.718.757-2.616h3.09l-.206 1.01h5.617v1.978H42.64z"/>
    </g>
</svg>
