<?xml version="1.0" encoding="utf-8"?>
<!-- Generator: Adobe Illustrator 23.0.3, SVG Export Plug-In . SVG Version: 6.00 Build 0)  -->
<svg version="1.1" id="圖層_1" xmlns="http://www.w3.org/2000/svg" xmlns:xlink="http://www.w3.org/1999/xlink" x="0px" y="0px"
	 viewBox="0 0 71 73" style="enable-background:new 0 0 71 73;" xml:space="preserve">
<style type="text/css">
	.st0{fill-rule:evenodd;clip-rule:evenodd;fill:#E8E0D7;}
	.st1{fill-rule:evenodd;clip-rule:evenodd;fill:#1D243A;}
	.st2{fill:#1D243A;}
</style>
<g>
	<path class="st0" d="M70.9,67l-62,5.2L0,22.6L55.7,0.2L68,12.6L70.9,67z"/>
	<g>
		<path class="st1" d="M18.2,22c-1.8,0-3.3,1.5-3.3,3.3v34.2c0,1.8,1.5,3.3,3.3,3.3h34.4c1.8,0,3.3-1.5,3.3-3.3V25.3
			c0-1.8-1.5-3.3-3.3-3.3H18.2z M52.6,64.9H18.2c-2.9,0-5.3-2.4-5.3-5.3V25.3c0-2.9,2.4-5.3,5.3-5.3h34.4c2.9,0,5.3,2.4,5.3,5.3
			v34.2C57.9,62.5,55.5,64.9,52.6,64.9L52.6,64.9z"/>
	</g>
</g>
<g>
	<path class="st2" d="M23.3,48.1c-0.5-0.3-0.8-0.9-0.8-1.8v-5.8c0-0.8,0.2-1.4,0.7-1.8s1-0.6,1.7-0.6c1.4,0,2.9,0.1,4.5,0.2V40h-3.9
		c-0.6,0-0.9,0.3-0.9,0.9v1.5l4.1,0.1v1.6l-4.1,0.1v1.4c0,0.6,0.3,0.9,0.9,0.9h3.9v1.7c-1.2,0.1-2.7,0.2-4.3,0.2
		C24.4,48.5,23.8,48.4,23.3,48.1z"/>
	<path class="st2" d="M31,38.1h1.7l4.4,6.9v-6.9h2.1v10.4h-1.7L33,41.6v6.9H31V38.1z"/>
	<path class="st2" d="M41.8,47.9c-0.5-0.4-0.8-1-1-1.8s-0.3-1.7-0.3-2.9c0-1.2,0.1-2.2,0.3-2.9c0.2-0.8,0.6-1.3,1.2-1.7
		c0.6-0.4,1.3-0.6,2.4-0.6c0.7,0,1.3,0,1.8,0.1c0.5,0.1,1.1,0.2,1.7,0.3V40c-0.4,0-0.8-0.1-1.4-0.1c-0.6,0-1.1-0.1-1.7-0.1
		c-0.6,0-1,0.1-1.3,0.3c-0.3,0.2-0.5,0.6-0.6,1c-0.1,0.5-0.2,1.2-0.2,2.1c0,0.9,0.1,1.6,0.2,2.1s0.3,0.8,0.5,1s0.6,0.3,1.1,0.3
		c0.4,0,0.7,0,1.1-0.1c0.3-0.1,0.6-0.1,0.9-0.2v-2h-1.9v-1.6c0.3,0,0.6-0.1,1.1-0.1s0.9,0,1.3,0c0.6,0,1.1,0,1.5,0v5.9h-1.6
		l-0.3-0.7c-0.3,0.2-0.8,0.4-1.3,0.5c-0.5,0.2-1,0.2-1.5,0.2C42.9,48.5,42.2,48.3,41.8,47.9z"/>
</g>
</svg>
