<svg xmlns="http://www.w3.org/2000/svg" width="63" height="84" viewBox="0 0 63 84">
    <g fill="none" fill-rule="evenodd">
        <path fill="#E8E0D7" d="M.407.5L62.1 13.879l-7.636 58.345L11.592 83.3 0 70.194z"/>
        <path stroke="#1D243A" stroke-width="1.8" d="M30.634 43.906h-5.483v8.54c0 .488-.17.925-.504 1.26a1.74 1.74 0 0 1-1.26.505h-6.325c-.462 0-.884-.177-1.212-.505a1.736 1.736 0 0 1-.502-1.26V37.064c0-.544.204-1.022.623-1.372l10.707-8.581c.697-.46 1.474-.46 2.102.04l10.996 8.511c.462.332.711.828.711 1.402v15.384c0 .484-.168.92-.506 1.264-.336.33-.772.5-1.256.5h-6.327a1.74 1.74 0 0 1-1.26-.505 1.74 1.74 0 0 1-.504-1.26v-8.54z"/>
        <path fill="#1D243A" d="M10.717 20.254a3.295 3.295 0 0 0-3.291 3.292v34.227a3.297 3.297 0 0 0 3.291 3.294h34.23a3.297 3.297 0 0 0 3.291-3.294V23.546a3.295 3.295 0 0 0-3.291-3.292h-34.23zm34.23 42.838h-34.23a5.322 5.322 0 0 1-5.316-5.319V23.546a5.321 5.321 0 0 1 5.316-5.317h34.23a5.323 5.323 0 0 1 5.316 5.317v34.227a5.323 5.323 0 0 1-5.316 5.319z"/>
    </g>
</svg>
