<?xml version="1.0" encoding="utf-8"?>
<!-- Generator: Adobe Illustrator 23.0.3, SVG Export Plug-In . SVG Version: 6.00 Build 0)  -->
<svg version="1.1" id="圖層_1" xmlns="http://www.w3.org/2000/svg" xmlns:xlink="http://www.w3.org/1999/xlink" x="0px" y="0px"
	 viewBox="0 0 67.5 60.7" style="enable-background:new 0 0 67.5 60.7;" xml:space="preserve">
<style type="text/css">
	.st0{fill:#EABA4A;}
</style>
<title>資產 2</title>
<g>
	<g id="Layer_1">
		<path class="st0" d="M63.7,54.8c0.4,0.3,0.9,0.5,1.3,0.8c0.7,0.4,1.6-0.1,2.2-1s0-1-0.5-1.4c-0.2-0.2-0.4-0.4-0.7-0.6l-2.6-2.2
			c-0.2-0.2-0.4-0.3-0.6-0.5c-0.5-0.5-1-1-1.6-1.4c-2.3-2.4-4.8-4.6-7.5-6.6c-1.6-1-2.8-2.3-4.6-2.9c-1-0.5-1.9-1.1-2.8-1.8
			c-1.6-1.1-3.2-2.1-4.7-3.2c-0.6-0.4-1-1.1-1.7-1.5c-1.5-0.8-2.9-1.8-4.2-3c-0.8-0.8-1.8-1.4-2.8-1.9c-0.4-0.3-0.8-0.5-1.1-0.7
			c-1.5-1.1-2.9-2.2-4.4-3.4c-0.9-0.7-1.2-2-0.6-3c0.5-1,0.8-2,1.1-3c0.4-2.1,0.2-4.2-0.7-6.1c0,0-1.8-7.5-10.8-11.1
			c0,0-8-2.1-13,4.6c0,0-8.5,11.7,0.8,19.6c0.4,0.3,0.8,0.6,1.1,0.9c1,0.7,1.9,1.4,2.9,2.1c0.1,0,0.2,0,0.3,0.1
			c0.3,0.1,0.7,0.2,1,0.3c2.1,1.1,4.5,1.4,6.8,0.9c0.5-0.2,1.1-0.4,1.7-0.6c1.7-0.3,3.3-1.1,4.4-2.4c0.4-0.4,0.6-0.3,1,0l9.4,6.3
			l0.3,0.2c0.7,0.7,1.6,1.2,2.5,1.6l2.8,2.1c0.4,0.2,0.8,0.4,1.2,0.6c2.2,1.6,4.5,3.3,6.7,5c0.4,0.3,0.7,0.8,1.1,1.1s0.9,0.6,1.3,1
			c0.2,0.1,0.3,0.5,0.3,0.6c-0.6,1-1,1.7-1.7,2.6c-0.5,0.7-0.8,0.7-1.5,0c-0.5-0.4-1.2-0.4-1.7,0c-1,1.3-1.9,2.6-2.8,4
			c-0.4,0.6,0.4,1.1,0.4,1.1c0.6,0.6,1,0.6,1.6-0.1l1.6-2.1c0.5-0.6,1.4,0.2,2,0.8s0.5,1-0.1,1.6c-0.5,0.5-1,1-1.4,1.5
			c0,0-0.6,0.4,0.2,1.1c1.1,0.9,1.8,1.8,2.6,0.6c0.3-0.4,1.4-2,1.7-2.4c0.8,0.6,1.8,1.5,2.5,2c0.6,0.4,0.6,0.7,0.1,1.1
			s-1.2,1.1-1.8,1.7c-0.4,0.4-0.4,0.7,0,1.1l1.3,1.1c0.4,0.5,1.1,0.6,1.6,0.3c0.1-0.1,0.2-0.2,0.3-0.3c0.8-0.8,1.5-1.7,2.3-2.5
			c1-1,1-1.5,0-2.5c-0.2-0.2-0.5-0.9-0.4-1c0.6-0.9,1.2-1.7,1.9-2.6c0.4-0.4,1.1-0.5,1.5-0.1c0,0,0,0,0,0c0.5,0.5,1,1,1.6,1.5
			c0.2,0.1,0.5,0.3,0.7,0.3C62.5,53.8,63.2,54.3,63.7,54.8z M11.3,5.6c0.2,0,0.3-0.1,0.5-0.1c1.3-0.3,2.8-0.2,4.1,0.3
			c0.3,0.1,0.6,0.3,0.9,0.5c0.3,0.1,0.5,0.3,0.8,0.4s0.7,0.3,1,0.4c0,0,6.8,5.5,4.1,12.3c-0.5,0.7-1,1.4-1.6,2.1
			c-0.9,0.8-1.9,1.4-2.9,2.1c-1.3,0.8-2.7,1.2-4.3,1.2c-0.6,0-1.1,0-1.7-0.2c-1-0.4-1.9-1-2.8-1.6c-1.1-0.8-2.1-1.8-2.8-2.9
			c-0.7-1.4-1.3-2.8-1.8-4.2c-0.5-1.2-0.6-2.6-0.2-3.9c0.2-0.4,0.2-0.8,0.1-1.2C4.4,9.9,4.5,9.8,5.2,9.4c0.6-0.3,1.1-0.7,1.6-1.1
			C8.1,7,9.1,5.4,11.3,5.6z"/>
	</g>
</g>
</svg>
