<?xml version="1.0" encoding="utf-8"?>
<!-- Generator: Adobe Illustrator 23.0.3, SVG Export Plug-In . SVG Version: 6.00 Build 0)  -->
<svg version="1.1" id="圖層_1" xmlns="http://www.w3.org/2000/svg" xmlns:xlink="http://www.w3.org/1999/xlink" x="0px" y="0px"
	 viewBox="0 0 1191.8 178" style="enable-background:new 0 0 1191.8 178;" xml:space="preserve">
<style type="text/css">
	.st0{fill-rule:evenodd;clip-rule:evenodd;fill:#62BFAA;}
	.st1{fill-rule:evenodd;clip-rule:evenodd;fill:#F8E9C9;}
	.st2{fill-rule:evenodd;clip-rule:evenodd;fill:#FFFFFF;}
	.st3{fill-rule:evenodd;clip-rule:evenodd;fill:#EABA4A;}
	.st4{fill:none;stroke:#1D243A;stroke-width:2;}
</style>
<g>
	<path class="st0" d="M126,28c2,0.5,4,3.6,4,3.6c0,1.8,0,2,0,5.8c0.1,0.4,0.1,0.8,0,0.5c0,3.9,0,10,0,17.6
		c-0.2,3.1,0.5,7.1,0.1,11.3c0,0,0.4,7.4,2.8,10.3l-7.7-2.4c-3.4-3.1-2.1-17.5-2.1-17.5c3.1-6,1.9-10,1.9-10L126,28"/>
	<path class="st1" d="M212.5,78.9L212.5,78.9C212.4,77.5,212.5,78.3,212.5,78.9 M223.5,116.6C223.5,116.3,223.5,116.5,223.5,116.6
		 M212.5,80.3c0,0.1,0,0.3,0,0.5C212.5,80.5,212.5,80.3,212.5,80.3"/>
	<path class="st2" d="M224.6,65.8c0.6,4.2,0.3,9.6,0.3,9.6c0,12.4,0.1,20.9,0.1,35.5c0,3,0.5,2.6-1.3,3.2c0,2.4,0,2.3,0,2
		c0-0.4,0-0.2,0,0v0.5c0,1.8,0.2,4.6-2.5,4.9c0.4-0.3,0.8,4.3-0.7,5.1c-0.4-1.7-0.8,1.5-1.4,1.8c-1.9,0.2-2-2.2-2.2-2.5
		c-2.6-3.2-1.1-5.7-1.3-11.3c-0.5-7.2-2.6-8.2-10.4-9.4c-7.4,1.5-14.8,2.9-22.1,1.1c-1.3,2.2-6.8,2.2-8.1,2.7c-5-1.7-6-0.1-11.1-0.7
		c-3,2.5-6.1-1-9.2,1.4c-2.2-0.8-4.5,0.1-6.7,1.2c-0.9,0.5-2.1-1.1-3.3,0.2c-0.7,0.2-1.5,0.8-2.2,0.4c-2.1-0.6-4-0.9-5.7-0.9
		c-4.5,0-7.2,2.3-8.8,5.7l-4.7-4.7l-2.4,26.4l-1.5,7l-4.2,5c-0.7,0.2-1.5,0.3-2.5-0.2c-2.8,0.6-3.3-1.6-3.9-0.9
		c-2.2-12.1-1.9-22.5-1.2-26.7c0.3-3.2-0.4-10.8-0.3-10.1c0.1-3.6-1.5-6-4.2-4c-29.2-3-34.6-7.8-63.9-7.7
		c-10.8-2.6-21.6-6.1-32.4-3.7C3.6,96.2,0.1,92.4,0,86.4c-0.1-3.6,3.7-4.9,6.2-6c16.2-2.9,32.7-6.1,49.7-8.1c17.1-3,10.5-1.5,27.6-7
		c5.1-0.7,10.3,3,15.4-0.3c5.7,3.2,7.1-4.4,8.4-5c2.6-8.5,4.2-20.8,8.9-27c0.7,0.7,1.5-4.3,2.3-2.7c1.4,0.2,6.3-2.9,8.5-2.1l1.8,19
		c0,0,1.2,4-1.8,9.9c0,0-1.2,14.3,2.1,17.3l4.1,2.1c4.4,1.1,11.7-0.4,11.7-0.4c2.2-0.2,8.5,1.4,8.5,1.4c6.1,1.5,11.9,3.1,17.6,1.5
		c2.2,1.3,4.5,2.7,6.7,1.3c3.5-0.3,10.8,1.3,10.8,1.3c5.5-1.5,10.9-0.2,16.2,3.4l5.4,2.4c0.9-1.1,1.8-6.3,2.7-5.6c0-1.8,0-2.3,0-2.3
		c0,0.2,0,0.4,0,0.6c0-0.3,0-0.6,0-0.6V79c0.3-6.7,1.5-5.3,1.4-8.2c0.7-2.8,2.7-9.1,2.7-9.1c-0.2,0.5,0.2-2.3,2.7-0.5
		c3,0.3,2.5,1.4,3.4,1.9C222.9,63.4,224.3,63.1,224.6,65.8"/>
	<path class="st0" d="M96,88.2c-1.1,3.8-4.2,4.7-8.6,4.8c-2.5,0.1-2.5-0.6-2.4-1.7c0.4-2.7,3.7-3.3,7.7-3.3C94.1,88,96,88.1,96,88.2
		 M144,89.2c-1.1,3.8-4.2,4.7-8.6,4.8c-2.5,0.1-2.5-0.6-2.4-1.7c0.4-2.7,3.7-3.3,7.7-3.3C142.1,89,144,89.1,144,89.2 M129,89.2
		c-1.1,3.8-4.2,4.7-8.6,4.8c-2.5,0.1-2.5-0.6-2.4-1.7c0.4-2.7,3.7-3.3,7.7-3.3C127.1,89,129,89.1,129,89.2 M161.1,90.5
		c-0.7,0.7-1.3,1.5-2,2.2c-1.3,1.2-2.8,2.3-5.4,2.3c-1.3,0-1.9-0.8-1.6-1.4c0.6-1.4,0.1-2.9,3.2-3.8c2.4-0.7,4.3-1.4,6.7-0.3
		L161.1,90.5 M180.1,90.5c-0.7,0.7-1.3,1.5-2,2.2c-1.2,1.2-2.8,2.3-5.4,2.3c-1.3,0-1.9-0.8-1.6-1.4c0.6-1.4,0.1-2.9,3.2-3.8
		c2.4-0.7,4.3-1.4,6.7-0.3L180.1,90.5 M79,88c-3.5,2.9-4.4,5.8-10,4.8c-2-0.3-2.3-0.9-1.7-2.1C69,87,73.7,88.7,79,88 M59,88
		c-3.5,2.9-4.4,5.8-10,4.8c-2-0.3-2.3-0.9-1.7-2.1C49,87,53.7,88.7,59,88 M127.7,116.6c-0.9,2-1.5,4.3-1.8,6.8
		c-0.7,8.9-2,18.8-8,24.9c-0.9,0.2-1.8,1.3-3,1.7l1.3-4.1l4.4-7.8l2.3-26.1c0,0,6.8-1.2,11.9-0.9L127.7,116.6z"/>
</g>
<path class="st3" d="M1117.9,9.4c0,0-42.5,6.2-75.9,7c-212.3,4.9-419-33-636.5-7.3c-37.1,3.7-68.9,0-106.1,3.7
	c-5.3,0-10.6,7.3-10.6,11c0,47.7-21.2,95.4,5.3,139.5c0,3.7,15.9,11,31.8,7.3c21.2-3.7,42.4-11,63.6-11c148.5,0,297,7.3,445.5,14.7
	c102.7,6.5,205.4,4.4,308.1-3.7c48.5-4,46.8-38.3,46.8-38.3c1.1-18.4-3.4-24,0.4-42.4c-5.3-25.7,15.9-66.1-21.2-84.4L1117.9,9.4
	L1117.9,9.4z"/>
<path class="st4" d="M294.1,105.7l-55-3.9c0,0-13.4-1.1-21,3.9"/>
<path class="st4" d="M218.5,79l55-3.9c0,0,13.4-1.1,21,3.9"/>
</svg>
