<svg xmlns="http://www.w3.org/2000/svg" width="49" height="82" viewBox="0 0 49 82">
    <path fill="#eaba4a" fill-rule="nonzero" d="M21.028 56V41.09c8.663-1.828 15.49-4.67 20.483-8.527C46.504 28.706 49 23.986 49 18.4c0-3.757-1.108-7.023-3.323-9.799s-5.315-4.904-9.299-6.383C32.394.74 27.79 0 22.566 0 16.118 0 10.762 1.197 6.497 3.59 4.447 4.754 2.852 6.1 1.711 7.63.571 9.159 0 11.087 0 13.414c0 1.43.347 2.776 1.041 4.04a7.815 7.815 0 0 0 2.951 3.016c1.273.748 2.72 1.122 4.34 1.122 1.918 0 3.62-.382 5.108-1.147 1.488-.764 2.637-1.795 3.447-3.091.81-1.297 1.215-2.743 1.215-4.339 0-2.294-.545-4.164-1.636-5.61-1.092-1.446-2.745-2.585-4.96-3.416.628-.565 1.645-1.03 3.05-1.396 1.405-.366 3.067-.548 4.984-.548 3.472 0 6.216 1.504 8.233 4.512C29.79 9.566 30.8 14.162 30.8 20.346c0 2.991-.306 5.634-.918 7.928-.612 2.294-1.777 4.447-3.496 6.458-1.72 2.011-4.183 3.815-7.39 5.41V56h2.033zM20 82c3.218 0 5.69-.765 7.414-2.295C29.138 78.175 30 75.95 30 73.025c0-2.957-.862-5.2-2.586-6.73C25.69 64.765 23.218 64 20 64c-3.251 0-5.73.765-7.438 2.295-1.708 1.53-2.562 3.773-2.562 6.73 0 2.958.854 5.193 2.562 6.706C14.269 81.244 16.749 82 20 82z"/>
</svg>
