<?xml version="1.0" encoding="utf-8"?>
<!-- Generator: Adobe Illustrator 23.0.3, SVG Export Plug-In . SVG Version: 6.00 Build 0)  -->
<svg version="1.1" id="圖層_1" xmlns="http://www.w3.org/2000/svg" xmlns:xlink="http://www.w3.org/1999/xlink" x="0px" y="0px"
	 viewBox="0 0 68.5 70.1" style="enable-background:new 0 0 68.5 70.1;" xml:space="preserve">
<style type="text/css">
	.st0{fill-rule:evenodd;clip-rule:evenodd;fill:#E8E0D7;}
	.st1{filter:url(#Adobe_OpacityMaskFilter);}
	.st2{fill-rule:evenodd;clip-rule:evenodd;fill:#FFFFFF;}
	.st3{mask:url(#prefix__b_1_);fill-rule:evenodd;clip-rule:evenodd;fill:#1D243A;}
	.st4{fill-rule:evenodd;clip-rule:evenodd;fill:#1D243A;}
</style>
<g>
	<path class="st0" d="M68.5,8.4l-7.8,61.7l-50.3-1.7L0,9.4L14.8,0L68.5,8.4z"/>
	<g>
		<g transform="translate(0 .5) translate(20.874 16.2)">
			<defs>
				<filter id="Adobe_OpacityMaskFilter" filterUnits="userSpaceOnUse" x="-9.3" y="-3.4" width="45.1" height="44.9">
					<feColorMatrix  type="matrix" values="1 0 0 0 0  0 1 0 0 0  0 0 1 0 0  0 0 0 1 0"/>
				</filter>
			</defs>
			<mask maskUnits="userSpaceOnUse" x="-9.3" y="-3.4" width="45.1" height="44.9" id="prefix__b_1_">
				<g class="st1">
					<path id="prefix__a_1_" class="st2" d="M-9.3-3.4h45.1v44.9H-9.3V-3.4z"/>
				</g>
			</mask>
			<path class="st3" d="M-3.9-1.4c-1.8,0-3.3,1.5-3.3,3.3v34.2c0,1.8,1.5,3.3,3.3,3.3h34.4c1.8,0,3.3-1.5,3.3-3.3V1.9
				c0-1.8-1.5-3.3-3.3-3.3H-3.9L-3.9-1.4z M30.4,41.5H-3.9c-2.9,0-5.3-2.4-5.3-5.3V1.9c0-2.9,2.4-5.3,5.3-5.3h34.4
				c2.9,0,5.3,2.4,5.3,5.3v34.2C35.8,39.1,33.4,41.5,30.4,41.5L30.4,41.5z"/>
		</g>
		<path class="st4" d="M32.3,29.8c0.1,0.3,0.3,0.7,0.4,1.1c0.2,0.4,0.4,0.7,0.6,1.1h-3c-0.4-0.7-0.7-1.4-0.9-2.1h-0.7
			c-0.3,0.8-0.7,1.5-1.2,2.1H24c0.5-0.8,1-1.6,1.3-2.5c0.4-0.8,0.7-1.7,1-2.7h3.3c0,0.2-0.1,0.3-0.1,0.5c0,0.2-0.1,0.4-0.2,0.5h4.9
			v2L32.3,29.8L32.3,29.8z M26.1,35.1c-0.3-0.4-0.6-0.9-0.8-1.3c-0.3-0.4-0.5-0.9-0.8-1.4h3.5c0.3,0.5,0.5,0.9,0.8,1.4
			c0.3,0.5,0.6,0.9,1,1.3H26.1L26.1,35.1z M25.1,46.7h3.3V35.8h-3.3L25.1,46.7L25.1,46.7z M38.9,42.9c-0.1,0.2-0.2,0.3-0.3,0.4
			c-0.3,0.3-0.7,0.4-1.2,0.4h-6.3c-0.4,0-0.8-0.1-1.1-0.4c-0.4-0.3-0.5-0.7-0.5-1.3v-4.8c0-0.3,0.1-0.5,0.2-0.7
			c0.1-0.2,0.2-0.3,0.4-0.5c0.2-0.1,0.4-0.2,0.6-0.3c0.2-0.1,0.5-0.1,0.7-0.1h5.8c0.6,0,1.2,0.2,1.5,0.6c0.3,0.3,0.4,0.7,0.4,1.2
			v4.9C39,42.6,39,42.8,38.9,42.9z M42.9,46.1c-0.4,0.4-0.8,0.6-1.4,0.6h-5.8l-0.5-1.9h4.6c0.1,0,0.2-0.1,0.3-0.2
			c0.1-0.1,0.1-0.2,0.1-0.3v-9.1c0-0.1-0.1-0.3-0.2-0.4c-0.1-0.1-0.3-0.2-0.4-0.2h-9.3v-2h10.7c0.4,0,0.7,0,1,0.1
			c0.3,0.1,0.6,0.3,0.8,0.5c0.2,0.2,0.3,0.4,0.4,0.7c0.1,0.3,0.2,0.5,0.2,0.9v10.1C43.4,45.3,43.3,45.7,42.9,46.1z M36,38
			c0-0.3-0.1-0.4-0.4-0.4h-2.8c-0.1,0-0.2,0-0.3,0.1c-0.1,0.1-0.1,0.2-0.1,0.3v0.8H36C36,38.8,36,38,36,38z M36,40.5h-3.6v1
			c0,0.1,0,0.2,0.1,0.3c0.1,0.1,0.2,0.1,0.2,0.1h2.8c0.1,0,0.2,0,0.2-0.1c0.1-0.1,0.1-0.2,0.1-0.2C36,41.6,36,40.5,36,40.5z
			 M41.9,29.8c0.3,0.8,0.6,1.5,1,2.2h-3.4c-0.2-0.3-0.3-0.7-0.5-1.1c-0.1-0.4-0.3-0.7-0.4-1.1h-0.6c-0.1,0.4-0.2,0.7-0.3,1.1
			c-0.1,0.4-0.2,0.7-0.3,1H34c0.4-0.8,0.7-1.6,1-2.5c0.3-0.8,0.5-1.7,0.8-2.6h3.1l-0.2,1h5.6v2C44.2,29.8,41.9,29.8,41.9,29.8z"/>
	</g>
</g>
</svg>
