<?xml version="1.0" encoding="utf-8"?>
<!-- Generator: Adobe Illustrator 23.0.3, SVG Export Plug-In . SVG Version: 6.00 Build 0)  -->
<svg version="1.1" id="Layer_1" xmlns="http://www.w3.org/2000/svg" xmlns:xlink="http://www.w3.org/1999/xlink" x="0px" y="0px"
	 viewBox="0 0 115.4 81.4" style="enable-background:new 0 0 115.4 81.4;" xml:space="preserve">
<style type="text/css">
	.st0{fill:#808080;}
	.st1{fill:#F7931E;}
	.st2{fill:#E6E6E6;}
	.st3{fill:#B3B3B3;stroke:#B3B3B3;stroke-width:0.83;stroke-linejoin:round;}
	.st4{fill:#F9EEDA;}
	.st5{fill:#442442;}
	.st6{fill:#B3B3B3;}
	.st7{fill:#BCA8A7;}
	.st8{fill:#009245;}
</style>
<title>ship01</title>
<path class="st0" d="M69.6,78.6c8.8,3.6,8.5,4.1,16.5-0.4c1.5-0.9,0.9-2.7,1.5-5.9c0.6-2.6,0.1-5.4-1.5-7.5
	c-2.3-2.9-4.8-5.7-7.5-8.2C66.9,46.3,54.4,38.3,42,30.1c-11.2-7.5-22.1-17.8-32.1-9.8l-4,3c0,0-7.9,6-5.4,9
	C18.3,59.4,25.5,51.9,44,61C54.7,64.2,61.6,75.1,69.6,78.6z"/>
<path class="st1" d="M84.7,77.7c1.4,0.7,3,0.8,4.5,0.3c18.2-6,23.5-11.6,23.5-11.6c3.6-3.1,3.6-3.1,0-6.3c0,0-49.1-30.4-73.9-42.9
	c-2-0.7-3.9-1.3-6-0.2c0,0-12.2,6.5-20.6,13.4C7,34.4,7,34.4,12.3,38C12.3,38,23.5,48.1,84.7,77.7z"/>
<path class="st2" d="M85.8,69.1L85.8,69.1C71.8,55.1,40.9,35,40.9,35c-8.7-4.5-17.3-9.9-22.6-19c-0.5-0.8-0.8-2-2.1-1.9
	c0,0-1.1,0.6-0.1,3.5c0.4,2.2,0.6,4.5,0.5,6.8c-0.1,1.8,0,3.4-2.4,1.5c-1.3-1-2.1-0.5-2.4,1.1c-1.1,2.7-0.5,4.4,2.3,5.8l71.8,40.4
	c0.2,0.1,0.5,0.3,0.7,0.4c1.3,0.4,1.3-1,1.3-1C88.5,71,86.1,69.2,85.8,69.1z"/>
<path class="st3" d="M45.8,9.2L39.3,6c0.4-1.3-0.3-2.5-0.6-3.7c-0.2-0.7-0.2-1.4,0.6-1.7c0.6-0.2,1.2,0.1,1.5,0.6L45.8,9.2z"/>
<path class="st4" d="M18.3,16c5.3,9.1,16,14.7,24.7,19.1c0.1-1.3-0.1-2.9,0-4.6c2.9,1.7,4.7,1.6,7.5,3.2c0.9,0.5,1.8,1.1,3,0.8
	c6.4-1.7,12.5-3.8,17.9-7.7c1.7-1.2,3.1-2.8,4.1-4.7c0-1.3-1-1.6-1.8-2.1c-2-1.2-4.1-2.4-6.2-3.6c-1.3-0.8-2.5-1.6-4-0.3
	c-1.1,0.9-1.5,0.1-1.9-0.9c-0.8-2.4-1.7-4.9-2.5-7.3c-0.2-0.7-0.2-2-1.2-1.7c-1.2,0.3-0.6,1.5-0.4,2.2l2.5,8.3
	c-4.3-2.4-9.1-5-13.4-7.4l-0.6-0.6l0,0c-2.5-0.1-4.2-2.5-6.6-2.6c-1.3,0.6-2.6,1.4-3.9,2.2l-17,7.7"/>
<path class="st4" d="M75.6,26.4C81.2,31,86.7,35.8,92,40.8c0,0.5-0.1,0.9-0.1,1.3c-2.2,2.9-5.1,5.3-8.4,6.9
	c-4.5,2.4-9.3,4.2-14.3,5.5c-5.9-4.3-11-9.9-16.7-14.5c5.2-1.8,10.7-3.1,15.5-6C71.2,32.1,74.2,30.1,75.6,26.4z"/>
<path class="st4" d="M91.9,46.3c-1.5,3.8-4.8,5.7-8.1,7.5S74.4,56,70.8,57c0.7,0.9,1.4,1.6,2.3,2.3c0,0,8.8,12.1,1.9,7.9
	c5,2.2,7.6,4.7,11.4,7c1.2,0.7,2.3,1.9,3.8,1.5c7.4-2.3,14.3-5.9,20.4-10.6c4.9-3.7,3.6-5-0.8-7.9c0,0-11.8-8.2-18-10.8"/>
<path class="st5" d="M41.8,30.3c-0.1,1-0.1,1.3-0.1,2.2c0,2,1.2,2,2,2.5l7.8,4.7l1,0.3c5.2-1.8,10.7-3.1,15.5-6
	c3.2-1.9,6.3-3.9,7.6-7.6l-0.2-4.3c-1,1.9-2.4,3.5-4.1,4.7c-5.4,3.9-11.5,6.1-17.9,7.7c-1.3,0.3-2.1-0.3-3-0.8L43,29.4
	C43,29.4,41.8,28.6,41.8,30.3z"/>
<path class="st6" d="M91.9,46.3v-5.3l0.2-0.1c2.6,2.1,9.2,8.5,11.5,10.8c0,0,2.6,2.6,2.3,2.9c0,0,0,1-3.3-2L91.9,46.3z"/>
<path class="st7" d="M46.5,9.3l-0.6-0.6L46.5,9.3z"/>
<path class="st5" d="M69.2,54.2c4.9-1.2,9.7-2.9,14.3-5.2c3.3-1.7,6.4-5.3,8.6-8.3c0,1.4,0.2,4.2,0.2,5.6c-1.5,3.8-5.1,5.7-8.4,7.5
	c-3.3,1.8-6.8,3.2-10.4,4.2C73.4,57.9,71.4,59.3,69.2,54.2z"/>
<path class="st5" d="M21.3,30.2c-0.6-0.4-1.4-1.3-2-0.5c-0.7,0.9-0.5,2.2,0.3,3c0.6,0.5,1.3,0.9,2,1.3l36.7,21.2
	c2.3,1.2,4.3,2.8,6.8,3.8c0,0,2,0.8,2.3,0.1c0,0,0.7-0.3-0.7-1.3l-2.3-1.4c-2.3-1-3.8-3.2-5.9-4.5C58.4,52,23.9,31.4,21.3,30.2z"/>
<path class="st8" d="M53.9,41.2c4.2,3.4,10.2,8.1,14.8,12.3c0,0,4.7,4.2,3.8,5.1c0,0-0.7,1.7-5.1-1.5C58.5,50,47,42,47,42
	c-6.7-3.6-13.2-7.8-19.2-12.6c-4.9-3.5-9.2-7.9-12.8-12.8c-0.5-0.9-0.1-2,0.8-2.5c0,0,0,0,0.1,0c1.7-0.8,2.5,1.7,2.5,1.7
	c0.8,2.5,5.1,6.5,5.1,6.5c2.1,2,10.5,7.1,17.7,11.2C41.2,33.6,49,37.2,53.9,41.2z"/>
</svg>
