<svg id="Layer_1" data-name="Layer 1" xmlns="http://www.w3.org/2000/svg" viewBox="0 0 71.27 47.84"><defs><style>.cls-1{fill:gray;}.cls-2{fill:#c3531d;}.cls-3{fill:#af4717;}</style></defs><title>ship03-05</title><path class="cls-1" d="M32.91,28.63c2.44-.65,4.45-2.08,7.05-2.54A79.56,79.56,0,0,0,52.9,22.75c3.41-1.23,6.87-2.76,10.88-2.11,1.3.2,2.83-.07,3.31,1.38A2.85,2.85,0,0,1,66,25.43a47,47,0,0,1-5.84,3.72C51,33.76,41.27,37.35,31.63,41.06c-8.73,3.37-17.32,7.39-27.48,6.71-1.52-.11-3.51.34-3.88-1.51-.33-1.69-.71-3.52,1.22-4.9,8.62-6.16,19.08-8.93,29.63-11.52Z"/><path class="cls-2" d="M36.27,8.11c6.54-2,12.2-6.34,19.15-7.11C59.49.56,63.58-.81,67.7.68c2.12.77,4.12,2,3.44,4.6-1.64,6.33-2.46,13-7.21,18.12-9,6.77-20,9.37-29.95,14.16C31,39,27.63,39.74,24.5,41c-5.09,2-9.67.13-14.28-1.69C8,38.21,5.7,37.32,3.6,36.07,2,35.13.21,34.12.53,31.73a15,15,0,0,1,6.78-9.39c7.81-7,17.5-10.15,27.17-13.36Z"/><path class="cls-3" d="M35.88,11.46c2.23-.72,4.07-2.27,6.45-2.79A63.05,63.05,0,0,0,54.18,5c3.13-1.35,6.29-3,10-2.35,1.2.21,2.6-.1,3,1.48a3.4,3.4,0,0,1-1,3.7,44.54,44.54,0,0,1-5.34,4.07c-8.34,5-17.25,9-26.07,13.08-8,3.69-15.86,8.1-25.17,7.43-1.41-.11-3.23.39-3.57-1.62-.32-1.83-.68-3.81,1.09-5.32C15,18.72,24.57,15.65,34.24,12.79Z"/></svg>