<svg xmlns="http://www.w3.org/2000/svg" width="71" height="73" viewBox="0 0 71 73">
    <g fill="none" fill-rule="evenodd">
        <path fill="#E8E0D7" d="M70.888 66.957l-61.991 5.18L.049 22.57 55.702.168l12.262 12.481z"/>
        <g fill="#1D243A">
            <path d="M18.207 22.042a3.302 3.302 0 0 0-3.307 3.292V59.56a3.304 3.304 0 0 0 3.307 3.294h34.386A3.304 3.304 0 0 0 55.9 59.56V25.334a3.302 3.302 0 0 0-3.307-3.292H18.207zM52.593 64.88H18.207c-2.947 0-5.343-2.385-5.343-5.32V25.335c0-2.932 2.396-5.317 5.343-5.317h34.386c2.945 0 5.34 2.385 5.34 5.317V59.56c0 2.934-2.395 5.319-5.34 5.319z"/>
            <path d="M35.025 40.564l-.136 1.258c-.03.285-.077.524-.145.717a1.206 1.206 0 0 1-.282.473c-.272.283-.715.427-1.332.427h-5.456c-.649 0-1.105-.157-1.379-.474-.269-.27-.382-.693-.336-1.276l.113-1.125h-.947V39.08h1.08l.158-1.325c.048-.342.183-.635.41-.875h-1.897c.436-.48.843-1.008 1.218-1.593.375-.583.708-1.168.992-1.753h3.474a7.374 7.374 0 0 1-.194.405 2.448 2.448 0 0 1-.212.36h5.818v1.638h-6.854a3.49 3.49 0 0 1-.24.35 1.62 1.62 0 0 1-.26.28h4.942c.556 0 .994.17 1.309.515.253.3.368.689.336 1.17l-.088.828h.855v1.483h-.947zm-4.16 11.18c-.503.509-.998.96-1.478 1.348h-4.195c.527-.45 1.04-.905 1.544-1.37.506-.464.997-.95 1.478-1.456h4.06a53.96 53.96 0 0 1-1.408 1.478zm10.048-2.22c-.093-.106-.21-.241-.362-.406a3.42 3.42 0 0 1-.34-.427l-.494.832h-3v1.75c0 .629-.122 1.108-.363 1.436-.328.419-.875.63-1.646.63h-2.23l-.543-1.93h1.13a.356.356 0 0 0 .269-.124.376.376 0 0 0 .113-.259v-1.503h-6.788a.74.74 0 0 1-.53-.202.781.781 0 0 1-.259-.452.728.728 0 0 1 .113-.46c.089-.155.263-.272.518-.346l3.359-1.078h-2.367c-.452 0-.73-.15-.834-.45a.673.673 0 0 1-.011-.526.647.647 0 0 1 .37-.394l3.924-1.663h5.077l-4.308 1.686h1.914l3.183-1.1h6.16l-9.97 3.458c.417-.014.817-.03 1.192-.045a26.41 26.41 0 0 1 1.106-.023h4.287c-.124-.18-.27-.396-.44-.65-.174-.254-.35-.518-.53-.788h3.608c.375.45.785.959 1.23 1.528.443.567.881 1.071 1.32 1.505h-3.858zm-12.294-8.96l-.11.965c-.03.225.067.338.29.338h.749a8.371 8.371 0 0 1-.115-.44 4.113 4.113 0 0 1-.093-.483h1.851c.03.122.08.28.145.473.07.193.133.346.196.45h.382a.294.294 0 0 0 .224-.102.344.344 0 0 0 .09-.236l.066-.965H28.62zm3.824-2.437c-.054-.083-.117-.124-.192-.124H29.16a.328.328 0 0 0-.19.08.235.235 0 0 0-.1.19l-.112.808h1.012a2.605 2.605 0 0 1-.1-.335 5.88 5.88 0 0 0-.1-.36h1.826l.101.369c.039.144.073.254.102.326h.857l.047-.718a.32.32 0 0 0-.059-.236zm8.605 5.513c-.165-.12-.366-.273-.599-.46a6.884 6.884 0 0 1-.529-.46c-.12.12-.296.272-.529.46l-.576.46H34.69c.554-.435 1.1-.887 1.643-1.357a30.403 30.403 0 0 0 1.533-1.427c-.344-.344-.66-.697-.945-1.055-.287-.36-.552-.733-.789-1.125h3.54c.165-.252.316-.522.45-.808.135-.283.255-.576.363-.875h-1.243c-.056.135-.138.3-.235.495a3.996 3.996 0 0 1-.328.54h-3.27c.407-.66.78-1.37 1.116-2.135.337-.763.626-1.548.87-2.358h3.178a6.449 6.449 0 0 1-.212.709c-.1.276-.201.535-.305.774h4.936v1.975h-1.17a23.566 23.566 0 0 1-.934 1.953 14.95 14.95 0 0 1-1.164 1.82 30.417 30.417 0 0 0 1.738 1.517 25.06 25.06 0 0 0 1.849 1.357h-4.263zm-.316 9.452a16.8 16.8 0 0 1-1.454-1.325c-.49-.493-.938-.995-1.34-1.501h3.99c.483.522.985 1.015 1.512 1.478.526.466 1.057.914 1.6 1.348h-4.308z"/>
        </g>
    </g>
</svg>
